<?xml version="1.0" standalone="no"?><!DOCTYPE svg PUBLIC "-//W3C//DTD SVG 1.1//EN" "http://www.w3.org/Graphics/SVG/1.1/DTD/svg11.dtd"><svg t="1753328092894" class="icon" viewBox="0 0 1024 1024" version="1.1" xmlns="http://www.w3.org/2000/svg" p-id="10195" xmlns:xlink="http://www.w3.org/1999/xlink" width="24" height="24"><path d="M974.848 397.312c-4.096-4.096-12.288-8.192-20.48-8.192H901.12c0-28.672-4.096-65.536-24.576-110.592C847.872 225.28 786.432 163.84 655.36 163.84c-32.768 0-65.536 4.096-94.208 12.288-53.248-28.672-176.128-49.152-286.72-8.192C204.8 196.608 118.784 253.952 94.208 389.12H69.632c-8.192 0-16.384 4.096-20.48 8.192s-8.192 16.384-8.192 24.576v28.672c4.096 139.264 77.824 270.336 204.8 348.16v110.592c0 20.48 12.288 32.768 28.672 32.768h450.56c16.384 0 32.768-12.288 32.768-32.768v-98.304l4.096-4.096C897.024 729.088 978.944 593.92 983.04 446.464v-32.768l-8.192-16.384zM819.2 307.2c16.384 32.768 20.48 65.536 20.48 81.92H450.56c0-12.288 4.096-45.056 28.672-81.92 24.576-36.864 61.44-61.44 110.592-73.728h4.096c20.48-4.096 40.96-8.192 61.44-8.192 81.92 0 135.168 28.672 163.84 81.92z m-512-81.92c65.536-20.48 131.072-16.384 176.128-8.192-20.48 16.384-40.96 36.864-57.344 57.344-32.768 49.152-36.864 90.112-40.96 110.592v4.096h-225.28C176.128 307.2 225.28 249.856 307.2 225.28z m0 655.36V819.2h389.12v61.44H307.2z m425.984-122.88H290.816C176.128 692.224 102.4 577.536 102.4 450.56h819.2c-4.096 126.976-73.728 241.664-188.416 307.2z" p-id="10196" fill="#ffffff"></path></svg>