<?xml version="1.0" standalone="no"?><!DOCTYPE svg PUBLIC "-//W3C//DTD SVG 1.1//EN" "http://www.w3.org/Graphics/SVG/1.1/DTD/svg11.dtd"><svg t="1753328121141" class="icon" viewBox="0 0 1024 1024" version="1.1" xmlns="http://www.w3.org/2000/svg" p-id="11365" xmlns:xlink="http://www.w3.org/1999/xlink" width="24" height="24"><path d="M867.288842 64.648392 157.782559 64.648392c-16.954137 0-30.699186 13.745049-30.699186 30.699186L127.083373 928.244122c0 16.954137 13.745049 30.699186 30.699186 30.699186l709.506283 0c16.954137 0 30.699186-13.745049 30.699186-30.699186L897.988028 95.347578C897.988028 78.392418 884.242979 64.648392 867.288842 64.648392zM574.652945 126.046764l131.487683 0 0 273.587052-53.983495-32.547277c-10.112312-6.095835-22.824845-5.852288-32.694633 0.62524l-44.809555 29.408797L574.652945 126.046764zM513.254573 126.046764l0 327.943031c0 11.281951 6.187933 21.655206 16.116049 27.01426 4.562922 2.463098 9.577123 3.684926 14.58109 3.684926 5.881964 0 11.749602-1.688455 16.84669-5.033643l76.202543-50.012044 83.98888 50.637284c9.478885 5.715165 21.305235 5.884011 30.946826 0.440022 9.640568-5.445012 15.60235-15.658631 15.60235-26.730805L767.539001 126.046764l69.050656 0 0 642.611733L188.481745 768.658498 188.481745 126.046764 513.254573 126.046764zM188.481745 897.544937l0-67.488067 648.107911 0 0 67.488067L188.481745 897.544937z" p-id="11366" fill="#ffffff"></path></svg>