<?xml version="1.0" standalone="no"?><!DOCTYPE svg PUBLIC "-//W3C//DTD SVG 1.1//EN" "http://www.w3.org/Graphics/SVG/1.1/DTD/svg11.dtd"><svg t="1753328041478" class="icon" viewBox="0 0 1024 1024" version="1.1" xmlns="http://www.w3.org/2000/svg" p-id="8137" xmlns:xlink="http://www.w3.org/1999/xlink" width="24" height="24"><path d="M876.06234074 299.37208889V138.20207408l-82.76954074 66.02145184c-18.08308148-15.53445925-37.50115555-29.61256297-58.0114963-42.11294814L859.55697778 62.95703703c8.00995555-6.31087408 17.23354075-10.07312592 27.06394073-11.28675555 9.58767408-1.09226667 19.53943703 0.48545185 28.76302223 4.97588149 9.10222222 4.36906667 16.62672592 11.16539259 21.72397037 19.41807406 5.21860741 8.37404445 8.13131852 18.08308148 8.13131852 28.15620742v429.74625185c-0.24272592-86.41042963-25.60758518-166.87407408-69.17688889-234.59460741zM72.15407408 533.9666963v-429.62488889c0-10.07312592 2.91271111-19.6608 8.1313185-28.15620741 5.21860741-8.25268148 12.62174815-14.92764445 21.72397038-19.41807408 9.22358518-4.49042963 19.17534815-6.06814815 28.76302222-4.97588147 9.70903703 1.09226667 19.05398518 4.85451852 27.06394074 11.28675555L282.112 162.11057778c-20.51034075 12.50038518-39.92841482 26.57848889-58.0114963 42.11294814L141.33096296 138.20207408v161.17001481c-43.5693037 67.72053333-68.93416297 148.18417778-69.17688888 234.59460741z" fill="#ffffff" p-id="8138"></path><path d="M675.08527408 468.4306963c0-19.05398518 15.53445925-34.58844445 34.58844443-34.58844445 19.17534815 0 34.58844445 15.53445925 34.58844445 34.58844445v66.99235555c0 19.05398518-15.53445925 34.58844445-34.58844445 34.58844445s-34.58844445-15.53445925-34.58844443-34.58844445v-66.99235555zM474.10820741 683.12177778c0-19.05398518 15.53445925-34.58844445 34.58844444-34.58844445s34.58844445 15.53445925 34.58844445 34.58844445c0 9.10222222 3.64088889 17.3549037 9.46631111 23.18032592l0.12136295 0.12136297c5.82542222 5.82542222 13.95674075 9.46631111 23.18032594 9.46631111 8.98085925 0 17.23354075-3.64088889 23.18032592-9.58767408 5.94678518-5.94678518 9.58767408-14.0781037 9.58767408-23.18032592 0-19.05398518 15.53445925-34.58844445 34.58844444-34.58844445s34.58844445 15.53445925 34.58844444 34.58844445c0 28.15620741-11.40811852 53.64242963-29.85528888 72.0896-18.44717037 18.44717037-43.93339259 29.85528889-72.0896 29.85528889-27.91348148 0-53.3997037-11.40811852-71.84687408-29.73392592l-0.24272592-0.24272593C485.51632592 736.52148148 474.10820741 711.03525925 474.10820741 683.12177778z" fill="#ffffff" p-id="8139"></path><path d="M474.10820741 683.12177778c0-19.05398518 15.53445925-34.58844445 34.58844444-34.58844445s34.58844445 15.53445925 34.58844445 34.58844445c0 28.03484445-11.40811852 53.3997037-29.85528889 71.96823704l-0.24272593 0.24272593c-18.44717037 18.44717037-43.93339259 29.73392592-71.84687407 29.73392592-28.15620741 0-53.64242963-11.40811852-72.0896-29.85528889-18.44717037-18.44717037-29.85528889-43.93339259-29.8552889-72.0896 0-19.05398518 15.53445925-34.58844445 34.58844445-34.58844445 19.17534815 0 34.58844445 15.53445925 34.58844445 34.58844445 0 8.98085925 3.64088889 17.23354075 9.58767407 23.18032592 5.94678518 5.94678518 14.0781037 9.58767408 23.18032593 9.58767408 9.10222222 0 17.3549037-3.64088889 23.18032592-9.46631111l0.12136297-0.12136297c5.82542222-5.94678518 9.46631111-14.0781037 9.46631111-23.18032592zM273.13114074 468.4306963c0-19.05398518 15.53445925-34.58844445 34.58844444-34.58844445 19.17534815 0 34.58844445 15.53445925 34.58844445 34.58844445v66.99235555c0 19.05398518-15.53445925 34.58844445-34.58844445 34.58844445s-34.58844445-15.53445925-34.58844444-34.58844445v-66.99235555z" fill="#ffffff" p-id="8140"></path><path d="M508.69665185 98.75911111c120.51342222 0 229.74008889 48.90927408 308.74737778 127.91656297 79.00728889 79.00728889 127.91656297 188.11259259 127.91656295 308.74737777 0 120.51342222-48.90927408 229.74008889-127.91656295 308.74737778C738.43674074 923.05635555 629.21007408 971.96562963 508.69665185 971.96562963c-120.51342222 0-229.74008889-48.90927408-308.74737777-127.91656296-79.00728889-79.00728889-127.7952-188.11259259-127.7952-308.62601482 0-120.51342222 48.90927408-229.74008889 127.91656295-308.74737777 78.88592592-79.00728889 188.11259259-127.91656297 308.62601482-127.91656297z m259.71674073 176.82583704c-66.5069037-66.5069037-158.37866667-107.64894815-259.71674073-107.64894815s-193.3312 41.14204445-259.71674074 107.64894815C182.47300741 342.09185185 141.33096296 433.96361482 141.33096296 535.42305185s41.14204445 193.3312 107.64894815 259.71674074c66.5069037 66.5069037 158.2573037 107.64894815 259.71674074 107.64894816s193.3312-41.14204445 259.71674073-107.64894816c66.5069037-66.5069037 107.64894815-158.2573037 107.64894816-259.71674074S834.9202963 342.09185185 768.41339258 275.58494815z" fill="#ffffff" p-id="8141"></path></svg>