<?xml version="1.0" standalone="no"?><!DOCTYPE svg PUBLIC "-//W3C//DTD SVG 1.1//EN" "http://www.w3.org/Graphics/SVG/1.1/DTD/svg11.dtd"><svg t="1753328150211" class="icon" viewBox="0 0 1024 1024" version="1.1" xmlns="http://www.w3.org/2000/svg" p-id="12428" xmlns:xlink="http://www.w3.org/1999/xlink" width="24" height="24"><path d="M896.2 154.4c-19.3 0-35 15.7-35 35v152.3c0 19.3 15.7 35 35 35s35-15.7 35-35V189.4c0-19.3-15.7-35-35-35zM127.8 154.4c-19.3 0-35 15.7-35 35v152.3c0 19.3 15.7 35 35 35s35-15.7 35-35V189.4c0-19.3-15.6-35-35-35zM830.2 684.6c-17.5-8.3-38.3-0.8-46.6 16.7C756.8 757.9 662.5 842 512.1 842c-133.5 0-230.2-70.5-266.9-140.4-9-17.1-30.1-23.7-47.2-14.8-17.1 9-23.7 30.1-14.8 47.2 24.4 46.6 66.2 89.5 117.6 120.9 61.2 37.3 134.2 57 211.2 57 77.9 0 152.4-19.9 215.4-57.6 54.1-32.4 97.7-77.3 119.4-123.2 8.3-17.4 0.8-38.2-16.6-46.5z" p-id="12429" fill="#ffffff"></path></svg>